<svg width="300" height="300" viewBox="0 0 300 300" fill="none" xmlns="http://www.w3.org/2000/svg">
<path d="M93.15 188.29C139.498 188.29 177.07 150.718 177.07 104.37C177.07 58.0223 139.498 20.45 93.15 20.45C46.8022 20.45 9.22998 58.0223 9.22998 104.37C9.22998 150.718 46.8022 188.29 93.15 188.29Z" fill="#77CBB9"/>
<path d="M248.81 123.99C271.984 123.99 290.77 105.204 290.77 82.03C290.77 58.8561 271.984 40.07 248.81 40.07C225.636 40.07 206.85 58.8561 206.85 82.03C206.85 105.204 225.636 123.99 248.81 123.99Z" fill="#252634"/>
<path d="M196 279.55C225.172 279.55 248.82 255.902 248.82 226.73C248.82 197.558 225.172 173.91 196 173.91C166.828 173.91 143.18 197.558 143.18 226.73C143.18 255.902 166.828 279.55 196 279.55Z" fill="#A5A6BC"/>
<path d="M47.8 247.37C59.1992 247.37 68.44 238.129 68.44 226.73C68.44 215.331 59.1992 206.09 47.8 206.09C36.4009 206.09 27.16 215.331 27.16 226.73C27.16 238.129 36.4009 247.37 47.8 247.37Z" fill="#4E4F66"/>
</svg>
